<?xml version="1.0" encoding="UTF-8" standalone="no"?>
<!-- Created with Inkscape (http://www.inkscape.org/) -->

<svg
   version="1.1"
   id="svg2441"
   xml:space="preserve"
   width="1086.7703"
   height="191.24091"
   viewBox="0 0 1086.7703 191.24091"
   sodipodi:docname="network-full.svg"
   inkscape:version="1.1 (c4e8f9e, 2021-05-24)"
   xmlns:inkscape="http://www.inkscape.org/namespaces/inkscape"
   xmlns:sodipodi="http://sodipodi.sourceforge.net/DTD/sodipodi-0.dtd"
   xmlns="http://www.w3.org/2000/svg"
   xmlns:svg="http://www.w3.org/2000/svg"><defs
     id="defs2445"><clipPath
       clipPathUnits="userSpaceOnUse"
       id="clipPath2455"><path
         d="M 0,1000 H 1000 V 0 H 0 Z"
         id="path2453" /></clipPath><clipPath
       clipPathUnits="userSpaceOnUse"
       id="clipPath2487"><path
         d="m 206.263,502.191 h 56.886 v -15.246 h -56.886 z"
         id="path2485" /></clipPath></defs><sodipodi:namedview
     id="namedview2443"
     pagecolor="#ffffff"
     bordercolor="#666666"
     borderopacity="1.0"
     inkscape:pageshadow="2"
     inkscape:pageopacity="0.0"
     inkscape:pagecheckerboard="0"
     showgrid="false"
     inkscape:zoom="0.56475003"
     inkscape:cx="544.48868"
     inkscape:cy="93.846829"
     inkscape:window-width="1376"
     inkscape:window-height="982"
     inkscape:window-x="1895"
     inkscape:window-y="44"
     inkscape:window-maximized="0"
     inkscape:current-layer="g2447" /><g
     id="g2447"
     inkscape:groupmode="layer"
     inkscape:label="new glooys 2 Network"
     transform="matrix(1.3333333,0,0,-1.3333333,-122.28173,761.2873)"><g
       id="g2449"><g
         id="g2451"
         clip-path="url(#clipPath2455)"><g
           id="g2457"
           transform="translate(451.084,501.144)"><path
             d="m 0,0 c 1.529,0 2.795,-0.513 3.795,-1.542 1.001,-1.03 1.501,-2.31 1.501,-3.841 v -18.71 c 0,-2.059 -0.912,-3.649 -2.735,-4.766 -5.767,-3.59 -12.093,-5.383 -18.979,-5.383 -5.824,0 -11.209,1.424 -16.151,4.28 -4.944,2.851 -8.856,6.707 -11.739,11.562 -2.883,4.856 -4.326,10.165 -4.326,15.93 0,5.77 1.443,11.078 4.326,15.933 2.883,4.854 6.795,8.709 11.739,11.564 4.942,2.852 10.327,4.28 16.151,4.28 5.826,0 10.888,-1.18 15.182,-3.532 0.882,-0.47 1.546,-1.088 1.986,-1.853 0.441,-0.766 0.662,-1.587 0.662,-2.472 0,-1.47 -0.485,-2.75 -1.456,-3.839 -0.972,-1.09 -2.163,-1.633 -3.576,-1.633 -0.882,0 -1.854,0.235 -2.912,0.706 -3.178,1.355 -6.471,2.032 -9.886,2.032 -3.766,0 -7.237,-0.958 -10.414,-2.872 -3.178,-1.911 -5.693,-4.485 -7.546,-7.72 -1.854,-3.236 -2.781,-6.769 -2.781,-10.594 0,-3.824 0.927,-7.356 2.781,-10.59 1.853,-3.234 4.368,-5.812 7.546,-7.724 3.177,-1.911 6.648,-2.868 10.414,-2.868 1.648,0 3.415,0.148 5.297,0.442 1.883,0.293 3.531,0.676 4.944,1.148 v 11.471 h -8.299 c -1.529,0 -2.808,0.503 -3.839,1.504 -1.03,0.998 -1.544,2.263 -1.544,3.793 0,1.531 0.514,2.795 1.544,3.798 1.031,0.999 2.31,1.496 3.839,1.496 z m 23.308,-27.976 c 0,-1.532 -0.515,-2.811 -1.544,-3.842 -1.031,-1.026 -2.311,-1.543 -3.84,-1.543 -1.472,0 -2.707,0.517 -3.707,1.543 -1.001,1.031 -1.502,2.31 -1.502,3.842 v 54.548 c 0,1.529 0.516,2.806 1.545,3.839 1.03,1.029 2.31,1.545 3.841,1.545 1.469,0 2.706,-0.516 3.707,-1.545 1,-1.033 1.5,-2.31 1.5,-3.839 z m 105.276,18.182 c 0,-4.707 -1.058,-8.93 -3.178,-12.664 -2.116,-3.738 -5.016,-6.637 -8.693,-8.697 -3.677,-2.057 -7.722,-3.087 -12.136,-3.087 -4.472,0 -8.533,1.03 -12.18,3.087 -3.649,2.06 -6.532,4.959 -8.651,8.697 -2.118,3.734 -3.177,7.957 -3.177,12.664 0,4.707 1.059,8.931 3.177,12.666 2.119,3.733 5.002,6.649 8.651,8.735 3.647,2.091 7.708,3.136 12.18,3.136 4.414,0 8.459,-1.045 12.136,-3.136 3.677,-2.086 6.577,-5.002 8.693,-8.735 2.12,-3.735 3.178,-7.959 3.178,-12.666 m -10.592,0 c 0,2.881 -0.603,5.459 -1.809,7.723 -1.206,2.266 -2.826,4.015 -4.854,5.25 -2.03,1.237 -4.282,1.855 -6.752,1.855 -2.472,0 -4.723,-0.618 -6.753,-1.855 -2.029,-1.235 -3.647,-2.984 -4.854,-5.25 -1.206,-2.264 -1.81,-4.842 -1.81,-7.723 0,-2.883 0.604,-5.442 1.81,-7.68 1.207,-2.234 2.825,-3.97 4.854,-5.207 2.03,-1.235 4.281,-1.852 6.753,-1.852 2.47,0 4.722,0.617 6.752,1.852 2.028,1.237 3.648,2.973 4.854,5.207 1.206,2.238 1.809,4.797 1.809,7.68 m -41.015,0 c 0,-4.707 -1.057,-8.93 -3.177,-12.664 -2.117,-3.738 -5.017,-6.637 -8.694,-8.697 -3.676,-2.057 -7.722,-3.087 -12.135,-3.087 -4.473,0 -8.533,1.03 -12.181,3.087 -3.649,2.06 -6.532,4.959 -8.65,8.697 -2.119,3.734 -3.178,7.957 -3.178,12.664 0,4.707 1.059,8.931 3.178,12.666 2.118,3.733 5.001,6.649 8.65,8.735 3.648,2.091 7.708,3.136 12.181,3.136 4.413,0 8.459,-1.045 12.135,-3.136 3.677,-2.086 6.577,-5.002 8.694,-8.735 2.12,-3.735 3.177,-7.959 3.177,-12.666 m -10.591,0 c 0,2.881 -0.603,5.459 -1.81,7.723 -1.205,2.266 -2.824,4.015 -4.853,5.25 -2.032,1.237 -4.283,1.855 -6.752,1.855 -2.472,0 -4.723,-0.618 -6.753,-1.855 -2.03,-1.235 -3.649,-2.984 -4.855,-5.25 -1.207,-2.264 -1.809,-4.842 -1.809,-7.723 0,-2.883 0.602,-5.442 1.809,-7.68 1.206,-2.234 2.825,-3.97 4.855,-5.207 2.03,-1.235 4.281,-1.852 6.753,-1.852 2.469,0 4.72,0.617 6.752,1.852 2.029,1.237 3.648,2.973 4.853,5.207 1.207,2.238 1.81,4.797 1.81,7.68 m 118.191,38.216 c 0.765,0 1.368,-0.233 1.81,-0.703 0.441,-0.471 0.661,-1.059 0.661,-1.764 v -56.49 c 0,-0.884 -0.265,-1.578 -0.794,-2.074 -0.53,-0.503 -1.177,-0.752 -1.942,-0.752 -0.413,0 -0.808,0.088 -1.191,0.266 -0.384,0.176 -0.692,0.381 -0.928,0.617 l -37.864,51.017 v -49.515 c 0,-0.649 -0.25,-1.208 -0.75,-1.678 -0.501,-0.474 -1.075,-0.707 -1.722,-0.707 -0.706,0 -1.295,0.233 -1.764,0.707 -0.472,0.47 -0.707,1.029 -0.707,1.678 v 56.751 c 0,0.824 0.25,1.473 0.752,1.944 0.499,0.47 1.102,0.703 1.807,0.703 0.942,0 1.649,-0.321 2.118,-0.971 l 38.041,-51.282 v 49.786 c 0,0.705 0.238,1.293 0.707,1.764 0.471,0.47 1.06,0.703 1.766,0.703 m 52.779,-36.629 c 0,-0.705 -0.264,-1.308 -0.794,-1.808 -0.531,-0.501 -1.148,-0.75 -1.854,-0.75 h -33.363 c 0,-3.533 0.721,-6.693 2.16,-9.488 1.444,-2.797 3.503,-5.002 6.179,-6.62 2.679,-1.621 5.842,-2.427 9.489,-2.427 2.825,0 5.355,0.588 7.593,1.765 2.233,1.176 4.028,2.678 5.382,4.5 0.648,0.53 1.266,0.795 1.853,0.795 0.59,0 1.119,-0.235 1.589,-0.705 0.471,-0.472 0.707,-1.001 0.707,-1.588 0,-0.65 -0.295,-1.268 -0.883,-1.855 -1.883,-2.295 -4.252,-4.18 -7.105,-5.651 -2.854,-1.472 -5.87,-2.203 -9.048,-2.203 -4.531,0 -8.531,0.969 -12.004,2.91 -3.47,1.944 -6.179,4.663 -8.119,8.166 -1.942,3.5 -2.912,7.547 -2.912,12.137 0,4.822 0.957,9.047 2.868,12.665 1.913,3.617 4.457,6.384 7.634,8.296 3.177,1.913 6.562,2.871 10.15,2.871 3.531,0 6.841,-0.824 9.931,-2.473 3.087,-1.65 5.604,-4.061 7.545,-7.239 1.943,-3.176 2.941,-6.943 3.002,-11.298 M 216.878,7.681 c -3.412,0 -6.575,-1.177 -9.487,-3.532 -2.913,-2.352 -4.783,-5.736 -5.606,-10.15 h 30.098 v 0.707 c -0.294,2.648 -1.176,4.961 -2.648,6.93 -1.47,1.971 -3.309,3.47 -5.516,4.499 -2.207,1.032 -4.486,1.546 -6.841,1.546 m 37.157,-1.059 v -29.567 c 0,-2.238 0.412,-3.752 1.236,-4.548 0.824,-0.792 1.913,-1.19 3.264,-1.19 0.354,0 0.796,0.074 1.325,0.221 0.529,0.146 0.941,0.22 1.236,0.22 0.53,0 0.985,-0.22 1.367,-0.66 0.383,-0.443 0.574,-0.957 0.574,-1.545 0,-0.826 -0.471,-1.518 -1.411,-2.074 -0.941,-0.562 -2.061,-0.84 -3.355,-0.84 -1.587,0 -3,0.149 -4.236,0.442 -1.236,0.294 -2.427,1.175 -3.576,2.646 -1.147,1.473 -1.721,3.828 -1.721,7.063 V 6.622 h -6.443 c -0.706,0 -1.309,0.235 -1.809,0.706 -0.502,0.47 -0.75,1.059 -0.75,1.767 0,0.706 0.248,1.293 0.75,1.763 0.5,0.472 1.103,0.706 1.809,0.706 h 6.443 v 9.798 c 0,0.764 0.249,1.398 0.751,1.898 0.5,0.5 1.134,0.751 1.899,0.751 0.764,0 1.396,-0.251 1.896,-0.751 0.501,-0.5 0.751,-1.134 0.751,-1.898 v -9.798 h 8.827 c 0.647,0 1.22,-0.264 1.72,-0.793 0.5,-0.53 0.751,-1.118 0.751,-1.767 0,-0.706 -0.237,-1.277 -0.707,-1.719 -0.471,-0.444 -1.06,-0.663 -1.764,-0.663 z m 75.109,6.089 c 0.765,0 1.399,-0.234 1.899,-0.705 0.499,-0.47 0.75,-1.117 0.75,-1.941 0,-0.059 -0.09,-0.441 -0.267,-1.149 l -13.591,-40.597 c -0.294,-0.529 -0.677,-0.961 -1.147,-1.283 -0.472,-0.322 -0.972,-0.455 -1.501,-0.397 -0.53,0 -1.001,0.149 -1.412,0.442 -0.413,0.294 -0.736,0.709 -0.972,1.238 L 301.34,-4.498 291.014,-31.681 c -0.235,-0.475 -0.573,-0.871 -1.015,-1.195 -0.441,-0.325 -0.897,-0.485 -1.367,-0.485 -0.589,-0.058 -1.134,0.075 -1.634,0.397 -0.5,0.322 -0.839,0.754 -1.015,1.283 L 272.038,8.916 c -0.179,0.355 -0.265,0.737 -0.265,1.149 0,0.765 0.265,1.398 0.793,1.898 0.53,0.499 1.177,0.748 1.943,0.748 0.531,0 1.013,-0.16 1.457,-0.483 0.441,-0.324 0.749,-0.752 0.927,-1.281 l 11.739,-35.216 10.502,26.393 c 0.413,1.114 1.237,1.675 2.471,1.675 1.177,0 2.001,-0.561 2.473,-1.675 l 11.032,-26.217 11.563,35.04 c 0.351,1.178 1.176,1.764 2.471,1.764 m 51.367,-23.476 c 0,-4.412 -0.972,-8.414 -2.912,-12.004 -1.944,-3.59 -4.62,-6.4 -8.034,-8.432 -3.412,-2.028 -7.206,-3.041 -11.384,-3.041 -4.179,0 -7.973,1.013 -11.388,3.041 -3.412,2.032 -6.089,4.842 -8.03,8.432 -1.943,3.59 -2.914,7.592 -2.914,12.004 0,4.414 0.971,8.414 2.914,12.003 1.941,3.59 4.618,6.416 8.03,8.474 3.415,2.059 7.209,3.091 11.388,3.091 4.178,0 7.972,-1.032 11.384,-3.091 3.414,-2.058 6.09,-4.884 8.034,-8.474 1.94,-3.589 2.912,-7.589 2.912,-12.003 m -5.296,0 c 0,3.533 -0.736,6.707 -2.207,9.53 -1.471,2.826 -3.516,5.048 -6.135,6.668 -2.618,1.616 -5.516,2.423 -8.692,2.423 -3.179,0 -6.062,-0.807 -8.652,-2.423 -2.588,-1.62 -4.633,-3.842 -6.133,-6.668 -1.501,-2.823 -2.25,-5.997 -2.25,-9.53 0,-3.472 0.749,-6.621 2.25,-9.445 1.5,-2.825 3.545,-5.045 6.133,-6.663 2.59,-1.621 5.473,-2.427 8.652,-2.427 3.176,0 6.074,0.795 8.692,2.383 2.619,1.587 4.664,3.794 6.135,6.621 1.471,2.822 2.207,5.998 2.207,9.531 m 34.156,23.568 c 1.177,0 2.235,-0.236 3.178,-0.709 0.939,-0.471 1.41,-1.176 1.41,-2.117 0,-0.826 -0.235,-1.486 -0.703,-1.986 -0.471,-0.5 -1.032,-0.752 -1.679,-0.752 -0.295,0 -0.868,0.147 -1.72,0.442 -0.854,0.296 -1.666,0.443 -2.429,0.443 -2.176,0 -4.338,-0.839 -6.487,-2.518 -2.147,-1.676 -3.914,-3.839 -5.295,-6.484 -1.383,-2.65 -2.075,-5.329 -2.075,-8.034 v -21.802 c 0,-0.765 -0.249,-1.399 -0.752,-1.895 -0.499,-0.503 -1.132,-0.752 -1.897,-0.752 -0.764,0 -1.398,0.249 -1.896,0.752 -0.502,0.496 -0.75,1.13 -0.75,1.895 V 8.827 c 0,0.765 0.248,1.398 0.75,1.902 0.498,0.497 1.132,0.747 1.896,0.747 0.765,0 1.398,-0.25 1.897,-0.747 0.503,-0.504 0.752,-1.137 0.752,-1.902 V 1.062 c 1.354,3.354 3.397,6.134 6.134,8.34 2.736,2.205 5.958,3.342 9.666,3.401 m 45.541,-41.486 c 0.529,-0.59 0.793,-1.267 0.793,-2.031 0,-0.765 -0.307,-1.399 -0.928,-1.895 -0.615,-0.503 -1.188,-0.752 -1.72,-0.752 -0.765,0 -1.411,0.324 -1.938,0.971 l -19.508,20.652 -6.62,-5.648 v -13.328 c 0,-0.765 -0.25,-1.399 -0.749,-1.895 -0.502,-0.503 -1.136,-0.752 -1.9,-0.752 -0.765,0 -1.399,0.249 -1.898,0.752 -0.501,0.496 -0.749,1.13 -0.749,1.895 v 60.021 c 0,0.764 0.248,1.398 0.749,1.895 0.499,0.502 1.133,0.754 1.898,0.754 0.764,0 1.398,-0.252 1.9,-0.754 0.499,-0.497 0.749,-1.131 0.749,-1.895 v -40.248 l 25.507,21.977 c 0.531,0.587 1.148,0.881 1.856,0.881 0.644,0 1.235,-0.278 1.763,-0.839 0.53,-0.556 0.795,-1.16 0.795,-1.807 0,-0.705 -0.325,-1.381 -0.971,-2.032 L 435.759,-8.207 Z"
             style="fill:#003c6a;fill-opacity:1;fill-rule:nonzero;stroke:none"
             id="path2459" /></g><g
           id="g2461"
           transform="translate(226.2373,531.5288)"><path
             d="m 0,0 c 5.128,-1.002 10.352,-2.037 15.689,-3.07 5.438,-1.051 10.954,-2.145 16.593,-3.241 0.254,-2.271 0.518,-4.614 0.79,-7.043 0.261,-2.527 0.558,-5.167 0.87,-7.923 -6.202,-1.389 -12.51,-2.829 -18.927,-4.258 -6.613,-1.524 -13.315,-3.029 -20.167,-4.575 -6.327,1.589 -12.463,3.134 -18.482,4.679 -5.904,1.468 -11.648,2.935 -17.275,4.359 1.228,2.741 2.401,5.343 3.532,7.858 1.088,2.419 2.14,4.753 3.155,7.003 5.958,1.08 11.793,2.146 17.538,3.176 C -11.016,-2.007 -5.471,-0.991 0,0 Z m -40.909,-21.072 c 5.627,-1.424 11.371,-2.891 17.275,-4.359 6.019,-1.545 12.155,-3.09 18.482,-4.679 -0.542,-3.266 -1.138,-6.671 -1.73,-10.245 -0.622,-3.773 -1.303,-7.715 -1.98,-11.826 -8.12,-2.133 -16.443,-4.246 -25.008,-6.502 -8.754,-2.278 -17.749,-4.606 -26.999,-7.02 -7.104,2.5 -13.949,4.92 -20.575,7.284 -6.461,2.315 -12.767,4.503 -18.874,6.684 2.972,4.089 5.786,7.989 8.503,11.726 2.557,3.555 5.024,6.926 7.377,10.16 7.62,1.546 15.091,3.038 22.428,4.532 7.148,1.426 14.16,2.854 21.101,4.245 z M -62.68,0.079 c 4.526,-1.006 9.112,-2.03 13.803,-3.067 4.785,-1.039 9.647,-2.124 14.655,-3.223 -1.015,-2.25 -2.067,-4.584 -3.155,-7.003 -1.131,-2.515 -2.304,-5.117 -3.532,-7.858 -6.941,-1.391 -13.953,-2.819 -21.101,-4.245 -7.337,-1.494 -14.808,-2.986 -22.428,-4.532 m 118.38,8.572 c 6.497,-1.437 13.136,-2.903 19.937,-4.388 6.969,-1.558 14.103,-3.105 21.404,-4.725 1.297,-3.283 2.659,-6.707 4.089,-10.318 1.508,-3.793 3.059,-7.778 4.712,-11.944 -7.026,-2.137 -14.259,-4.289 -21.658,-6.564 -7.579,-2.285 -15.366,-4.649 -23.367,-7.086 -8.56,2.538 -16.884,4.981 -24.984,7.353 -7.881,2.356 -15.494,4.565 -22.937,6.768 0.677,4.111 1.358,8.053 1.98,11.826 0.592,3.574 1.188,6.979 1.73,10.245 6.852,1.546 13.554,3.051 20.167,4.575 6.417,1.429 12.725,2.869 18.927,4.258 z m 29.423,21.195 c 5.739,-1.012 11.602,-2.026 17.595,-3.086 6.073,-1.046 12.294,-2.152 18.62,-3.257 1.539,-2.281 3.132,-4.647 4.805,-7.086 1.722,-2.539 3.506,-5.19 5.407,-7.973 -5.455,-1.401 -11.021,-2.844 -16.723,-4.3 -5.822,-1.523 -11.74,-3.031 -17.786,-4.606 -7.301,1.62 -14.435,3.167 -21.404,4.725 -6.801,1.485 -13.44,2.951 -19.937,4.388 -0.312,2.756 -0.609,5.396 -0.87,7.923 -0.272,2.429 -0.536,4.772 -0.79,7.043 5.421,1.077 10.714,2.156 15.943,3.193 5.129,1.023 10.169,2.036 15.14,3.036 z m 64.073,-0.07 c -4.466,-1.008 -8.995,-2.016 -13.579,-3.05 -4.68,-1.049 -9.428,-2.139 -14.279,-3.223 -6.326,1.105 -12.547,2.211 -18.62,3.257 -5.993,1.06 -11.856,2.074 -17.595,3.086 C 62.601,1.873 61.86,3.771 61.142,5.597 60.451,7.365 59.788,9.065 59.14,10.72 M 43.416,-102.494 c -0.866,7.012 -1.676,13.616 -2.391,19.793 -0.694,5.766 -1.349,11.215 -1.966,16.399 8.001,2.437 15.788,4.801 23.367,7.086 7.399,2.275 14.632,4.427 21.658,6.564 8.8,-2.226 17.808,-4.455 27.131,-6.82 9.524,-2.41 19.348,-4.881 29.49,-7.444 m -205.934,-34.978 c 0.867,7.014 1.676,13.617 2.391,19.793 0.696,5.766 1.349,11.217 1.969,16.398 -13.604,4.14 -27.155,10.227 -39.449,13.968 -8.8,-2.224 -23.385,-4.77 -32.708,-7.136"
             style="fill:none;stroke:#96c83f;stroke-width:3;stroke-linecap:round;stroke-linejoin:round;stroke-miterlimit:2.613;stroke-dasharray:none;stroke-opacity:1"
             id="path2463" /></g><g
           id="g2465"
           transform="translate(165.3682,472.875)"><path
             d="m 0,0 c 5.802,0 10.505,-3.154 10.505,-7.049 0,-3.889 -4.703,-7.043 -10.505,-7.043 -5.802,0 -10.506,3.154 -10.506,7.043 C -10.506,-3.154 -5.802,0 0,0"
             style="fill:#96c83f;fill-opacity:1;fill-rule:evenodd;stroke:none"
             id="path2467" /></g><g
           id="g2469"
           transform="translate(303.3672,506.7866)"><path
             d="m 0,0 c 4.254,0 7.704,-2.314 7.704,-5.168 0,-2.855 -3.45,-5.167 -7.704,-5.167 -4.256,0 -7.704,2.312 -7.704,5.167 C -7.704,-2.314 -4.256,0 0,0"
             style="fill:#96c83f;fill-opacity:1;fill-rule:evenodd;stroke:none"
             id="path2471" /></g><g
           id="g2473"
           transform="translate(326.2842,528.7271)"><path
             d="M 0,0 C 3.553,0 6.435,-1.931 6.435,-4.315 6.435,-6.699 3.553,-8.63 0,-8.63 c -3.556,0 -6.437,1.931 -6.437,4.315 C -6.437,-1.931 -3.556,0 0,0"
             style="fill:#96c83f;fill-opacity:1;fill-rule:evenodd;stroke:none"
             id="path2475" /></g><g
           id="g2477"
           transform="translate(265.2959,472.2734)"><path
             d="m 0,0 c 5.801,0 10.504,-3.154 10.504,-7.047 0,-3.892 -4.703,-7.045 -10.504,-7.045 -5.804,0 -10.506,3.153 -10.506,7.045 C -10.506,-3.154 -5.804,0 0,0"
             style="fill:#96c83f;fill-opacity:1;fill-rule:evenodd;stroke:none"
             id="path2479" /></g><g
           id="g2481"><g
             id="g2483" /><g
             id="g2495"><g
               clip-path="url(#clipPath2487)"
               opacity="0.300003"
               id="g2493"><g
                 transform="translate(234.707,502.1914)"
                 id="g2491"><path
                   d="m 0,0 c 15.707,0 28.442,-3.412 28.442,-7.621 0,-4.211 -12.735,-7.625 -28.442,-7.625 -15.71,0 -28.444,3.414 -28.444,7.625 C -28.444,-3.412 -15.71,0 0,0"
                   style="fill:#003c6a;fill-opacity:1;fill-rule:evenodd;stroke:none"
                   id="path2489" /></g></g></g></g><g
           id="g2497"
           transform="translate(212.7705,560.6021)"><path
             d="M 0,0 C 2.969,-1.235 4.902,-2.741 7.3,-5.238 L 3.999,-7.744 c -0.876,0.911 -7.22,0.577 -6.279,1.309 1.877,1.465 0.699,2.745 -0.998,3.451 -3.201,1.871 -4.196,-6.632 -12.327,-4.183 -5.439,1.637 -7.862,6.714 -6.2,11.482 1.664,4.769 7.396,7.227 12.804,5.492 C -5.757,8.766 -4.179,6.182 -3.941,3.32 -3.698,0.39 -3.406,1.414 0,0"
             style="fill:#54acd5;fill-opacity:1;fill-rule:evenodd;stroke:none"
             id="path2499" /></g><g
           id="g2501"
           transform="translate(259.8184,528.688)"><path
             d="m 0,0 c -1.676,2.442 6.736,11.07 11.594,17.568 4.859,6.497 8.817,5.48 10.92,3.738 C 24.619,19.562 24.836,14.439 20.084,9.61 15.333,4.782 1.674,-2.441 0,0"
             style="fill:#54acd5;fill-opacity:1;fill-rule:evenodd;stroke:none"
             id="path2503" /></g><g
           id="g2505"
           transform="translate(220.2451,493.1602)"><path
             d="M 0,0 C 7.624,0 9.072,4.974 14.114,5.012 19.153,5.053 21.343,0 28.696,0 c 11.888,0 19.625,25.526 19.625,39.498 0,17.898 -15.176,29.947 -33.899,29.947 -18.723,0 -33.901,-12.049 -33.901,-29.947 C -19.479,18.314 -10.434,0 0,0"
             style="fill:#54acd5;fill-opacity:1;fill-rule:evenodd;stroke:none"
             id="path2507" /></g><g
           id="g2509"
           transform="translate(269.7305,540)"><path
             d="M 0,0 C -0.586,1.082 2.026,2.508 4.369,5.622 6.713,8.735 8.646,9.322 9.233,8.239 9.818,7.157 8.781,4.997 6.359,2.945 3.94,0.894 0.585,-1.083 0,0"
             style="fill:#ffffff;fill-opacity:1;fill-rule:evenodd;stroke:none"
             id="path2511" /></g><g
           id="g2513"
           transform="translate(202.1094,569.3892)"><path
             d="m 0,0 c 2.033,0 3.682,-1.649 3.682,-3.684 0,-3.703 -7.341,-3.891 -7.341,0.537 C -3.659,-1.115 -2.033,0 0,0"
             style="fill:#ffffff;fill-opacity:1;fill-rule:evenodd;stroke:none"
             id="path2515" /></g><g
           id="g2517"
           transform="translate(209.6729,532.7935)"><path
             d="m 0,0 c 0.945,-2.808 -9.503,-8.813 -15.95,-13.736 -6.446,-4.925 -9.978,-2.866 -11.526,-0.616 -1.546,2.252 -0.359,7.239 5.532,10.589 C -16.056,-0.416 -0.945,2.808 0,0"
             style="fill:#54acd5;fill-opacity:1;fill-rule:evenodd;stroke:none"
             id="path2519" /></g><g
           id="g2521"
           transform="translate(198.1318,529.7041)"><path
             d="m 0,0 c 0.889,-0.887 -2.798,-0.243 -8.273,-4.892 -1.955,-1.661 -2.656,-2.71 -3.623,-2.067 -0.417,0.276 -1.237,1.276 1.535,3.553 C -7.589,-1.13 -0.982,0.981 0,0 m -12.067,-7.808 c 0.451,-0.532 0.376,-1.455 -0.169,-2.065 -0.544,-0.608 -1.353,-0.672 -1.804,-0.142 -0.452,0.53 -0.376,1.455 0.169,2.063 0.545,0.61 1.351,0.675 1.804,0.144"
             style="fill:#ffffff;fill-opacity:1;fill-rule:evenodd;stroke:none"
             id="path2523" /></g><g
           id="g2525"
           transform="translate(236.1172,561.2603)"><path
             d="m 0,0 c 16.687,0 30.216,-13.528 30.216,-30.216 0,-30.397 -60.243,-31.938 -60.243,4.386 C -30.027,-9.141 -16.688,0 0,0"
             style="fill:#5bbae0;fill-opacity:1;fill-rule:evenodd;stroke:none"
             id="path2527" /></g><g
           id="g2529"
           transform="translate(236.2344,527.1689)"><path
             d="M 0,0 C 5.115,0.311 6.888,2.22 9.229,0.374 11.568,-1.477 7.754,-8.276 0.482,-8.715 -6.79,-9.155 -11.265,-2.924 -9.294,-0.748 -7.326,1.43 -5.115,-0.309 0,0"
             style="fill:#003c6a;fill-opacity:1;fill-rule:evenodd;stroke:none"
             id="path2531" /></g><g
           id="g2533"
           transform="translate(241.4805,520.9746)"><path
             d="m 0,0 c -1.265,-0.889 -2.899,-1.548 -4.828,-1.665 -1.996,-0.12 -3.736,0.367 -5.11,1.139 0.017,1.558 2.742,2.561 4.883,1.659 C -2.937,2.293 -0.142,1.584 0,0"
             style="fill:#54acd5;fill-opacity:1;fill-rule:evenodd;stroke:none"
             id="path2535" /></g><g
           id="g2537"
           transform="translate(236.2676,526.5806)"><path
             d="M 0,0 C 3.35,0.202 5.148,1.037 6.664,1.126 6.667,1.099 6.67,1.074 6.671,1.047 6.742,-0.121 5.923,-1.122 4.841,-1.186 4.491,-1.207 4.157,-1.127 3.86,-0.972 3.545,-1.689 2.834,-2.211 1.979,-2.262 1.222,-2.309 0.532,-1.974 0.107,-1.433 -0.25,-2.022 -0.894,-2.437 -1.649,-2.481 -2.521,-2.534 -3.304,-2.085 -3.697,-1.389 -3.982,-1.605 -4.326,-1.741 -4.702,-1.763 -5.781,-1.829 -6.716,-0.935 -6.787,0.234 -6.789,0.268 -6.791,0.303 -6.791,0.336 -5.275,0.396 -3.35,-0.202 0,0"
             style="fill:#ffffff;fill-opacity:1;fill-rule:evenodd;stroke:none"
             id="path2539" /></g><g
           id="g2541"
           transform="translate(235.1572,552.1499)"><path
             d="M 0,0 C -5.903,-1.21 -7.739,4.484 -0.273,6.288 9.077,8.545 22.352,2.449 26.335,-5.943 27.396,-8.179 25.736,-9.016 23.927,-6.776 18.914,-0.575 9.902,2.03 0,0 m 26.76,-9.275 c 0.66,0.113 1.39,-0.429 1.628,-1.208 0.238,-0.782 -0.105,-1.504 -0.765,-1.617 -0.662,-0.112 -1.39,0.43 -1.628,1.211 -0.237,0.779 0.105,1.504 0.765,1.614"
             style="fill:#eef7f8;fill-opacity:1;fill-rule:evenodd;stroke:none"
             id="path2543" /></g><g
           id="g2545"
           transform="translate(251.6572,540.2114)"><path
             d="M 0,0 C 2.966,0.093 5.446,-2.237 5.539,-5.203 5.631,-8.17 3.3,-10.651 0.334,-10.742 -2.633,-10.835 -5.112,-8.503 -5.204,-5.537 -5.298,-2.57 -2.967,-0.092 0,0"
             style="fill:#003c6a;fill-opacity:1;fill-rule:evenodd;stroke:none"
             id="path2547" /></g><g
           id="g2549"
           transform="translate(254.1455,538.5654)"><path
             d="M 0,0 C 0.826,0.028 1.519,-0.623 1.544,-1.451 1.57,-2.279 0.92,-2.97 0.095,-2.996 -0.735,-3.021 -1.427,-2.372 -1.452,-1.544 -1.478,-0.717 -0.828,-0.025 0,0"
             style="fill:#eef7f8;fill-opacity:1;fill-rule:evenodd;stroke:none"
             id="path2551" /></g><g
           id="g2553"
           transform="translate(219.3623,539.8481)"><path
             d="m 0,0 c 2.967,0.092 5.446,-2.238 5.539,-5.205 0.092,-2.967 -2.238,-5.446 -5.205,-5.539 -2.967,-0.092 -5.446,2.238 -5.538,5.205 C -5.297,-2.572 -2.967,-0.094 0,0"
             style="fill:#003c6a;fill-opacity:1;fill-rule:evenodd;stroke:none"
             id="path2555" /></g><g
           id="g2557"
           transform="translate(221.8506,538.2031)"><path
             d="M 0,0 C 0.827,0.024 1.52,-0.625 1.545,-1.452 1.57,-2.28 0.921,-2.972 0.093,-2.999 -0.735,-3.023 -1.427,-2.373 -1.452,-1.545 -1.479,-0.717 -0.828,-0.026 0,0"
             style="fill:#eef7f8;fill-opacity:1;fill-rule:evenodd;stroke:none"
             id="path2559" /></g></g></g></g></svg>
