<svg height="53.314" viewBox="0 0 401.938 53.314" width="401.938" xmlns="http://www.w3.org/2000/svg"><g fill-rule="evenodd"><path d="m31.653 76.549h-5.453c-1.7 0-2.24-.73-1.266-1.607a8.712 8.712 0 0 1 4.918-1.607h26.538a8.712 8.712 0 0 0 4.918-1.607c1.023-.877.438-1.607-1.266-1.607h-20.988c-1.7 0-2.24-.73-1.266-1.607a8.712 8.712 0 0 1 4.918-1.607h9.5a8.712 8.712 0 0 0 4.915-1.607c1.023-.877.438-1.607-1.266-1.607h-27.806l4.675-3.993-32.724 12.125 4.821 11.882 4.679-3.993h18.549a8.712 8.712 0 0 0 4.918-1.607c.974-.828.39-1.558-1.315-1.558m13.294.146h-3.554a8.712 8.712 0 0 0 -4.919 1.605c-1.023.877-.438 1.607 1.266 1.607h3.506a8.712 8.712 0 0 0 4.919-1.607c1.023-.875.487-1.605-1.217-1.605zm-11.3-9.642h-4.818a8.712 8.712 0 0 0 -4.918 1.607c-1.023.877-.438 1.607 1.266 1.607h4.824a8.712 8.712 0 0 0 4.918-1.607c1.02-.925.435-1.607-1.269-1.607z" fill="#466baf" transform="translate(0 -30.588)"/><path d="m176.257 67.412h5.454c1.7 0 2.24.73 1.266 1.607a8.712 8.712 0 0 1 -4.918 1.607h-12.9a8.712 8.712 0 0 0 -4.918 1.607c-1.023.877-.438 1.607 1.266 1.607h7.4c1.7 0 2.24.73 1.266 1.607a8.712 8.712 0 0 1 -4.918 1.607h-14.369a8.712 8.712 0 0 0 -4.918 1.607c-1.023.877-.438 1.607 1.266 1.607h32.724l-4.675 3.993 32.724-11.931-4.821-11.93-4.675 3.993h-18.553a8.712 8.712 0 0 0 -4.918 1.607c-1.023.682-.487 1.412 1.217 1.412m-13.294-.146h3.506a8.712 8.712 0 0 0 4.918-1.607c1.023-.877.438-1.607-1.266-1.607h-3.506a8.712 8.712 0 0 0 -4.918 1.607c-.974.925-.39 1.607 1.266 1.607zm11.3 9.642h4.821a8.712 8.712 0 0 0 4.916-1.608c1.023-.877.438-1.607-1.266-1.607h-4.821a8.712 8.712 0 0 0 -4.918 1.607c-.975.926-.439 1.608 1.265 1.608z" fill="#e005a3" transform="translate(-74.628 -30.947)"/><path d="m124.39 74.4c9.934 0 17.238 1.266 16.313 2.776-.925 1.558-9.739 2.776-19.673 2.776s-17.238-1.266-16.313-2.776 9.739-2.776 19.673-2.776" fill="#003c6a" opacity=".3" transform="translate(-53.683 -38.13)"/><path d="m159.436 22.493c1.023.925 5.6-2.435 8.96-4.237 3.36-1.85 3.117-3.75 2.484-4.87-.682-1.12-3.068-1.558-5.6.341-2.63 1.948-6.866 7.84-5.844 8.765" fill="#158bc2" transform="translate(-81.717 -6.334)"/><path d="m170.306 17.68c.438.39 1.363-.682 3.019-1.461s2.143-1.607 1.7-2-1.558-.1-2.727.828c-1.169.877-2.435 2.24-2 2.63" fill="#fff" transform="translate(-87.328 -7.171)"/><path d="m90.823 8.918a16.547 16.547 0 0 1 5.016-1.266l-3.214 3.8c.779-.974-.341-1.12-.779-1.12-3.506.146-2.143 5.016-6.817 5.941a4.372 4.372 0 0 1 -5.454-3.944 5.115 5.115 0 0 1 4.237-5.7 4.363 4.363 0 0 1 4.431 1.7c.779 1.315 1.461.974 2.581.584" fill="#158bc2" transform="translate(-40.812 -3.327)"/><path d="m112.74 36.382c5.016-1.12 5.941-3.019 11.249-4.383s6.379-.536 9.642-.195c5.5.633 6.671-4.139 1.7-7.4.974-2.727 1.266-8.765.974-11.054-1.12-9.106-9.593-14.365-19.138-13.294s-16.557 8.084-15.485 17.19c.73 5.844 3.214 10.372 6.72 13.343-4.431 2.191.536 6.671 4.334 5.795" fill="#158bc2" transform="translate(-52.114 .082)"/><path d="m85.108 8.668a1.813 1.813 0 0 1 2.532.828c.828 1.753-2.63 3.7-3.6 1.558a1.842 1.842 0 0 1 1.071-2.386" fill="#fff" transform="translate(-43.035 -4.294)"/><path d="m98.77 39.449c-.049 1.51-6.233 3.068-10.275 4.626s-5.405.1-5.746-1.217 1.12-3.6 4.626-4.431c3.457-.877 11.444-.438 11.395 1.023" fill="#158bc2" transform="translate(-42.429 -19.443)"/><path d="m86.418 42.86a.848.848 0 0 1 -.438.974.617.617 0 0 1 -.925-.146.848.848 0 0 1 .438-.974c.39-.243.828-.195.925.146m7.3-2.24c.292.536-1.412-.243-4.918 1.315-1.266.536-1.8.974-2.143.536-.146-.195-.39-.779 1.412-1.558 1.758-.731 5.361-.877 5.653-.293z" fill="#fff" transform="translate(-43.614 -20.615)"/><path d="m118.862 1.24a14.788 14.788 0 0 1 17.677 12.223c2.727 15.583-26.929 22.887-30.192 4.237-1.51-8.522 4.285-14.658 12.515-16.459" fill="#289bcd" transform="translate(-54.438 -.421)"/><path d="m143.6 9.053a.71.71 0 0 1 .877.438.669.669 0 0 1 -.243.925.71.71 0 0 1 -.877-.438c-.146-.39-.049-.828.243-.925m-13.781-2c-2.824 1.266-4.139-1.51-.584-3.263 4.431-2.191 11.395-.438 13.976 3.506.682 1.071-.1 1.656-1.12.682-2.924-2.625-7.55-3.015-12.274-.921z" fill="#eef7f8" transform="translate(-65.198 -1.417)"/><path d="m143.247 32.039a9.641 9.641 0 0 0 2.24-1.071 1.247 1.247 0 0 1 1.412 0c.536.341.633 1.412.243 2.581a5.188 5.188 0 0 1 -2.727 3.165 4.494 4.494 0 0 1 -4.334-.39c-1.169-.779-1.7-2-1.315-2.776a1.869 1.869 0 0 1 1.7-1.071 11.444 11.444 0 0 0 2.776-.438" fill="#003c6a" transform="translate(-71.129 -15.734)"/><path d="m149.2 37.633a5.547 5.547 0 0 1 -2.094 1.753 3.422 3.422 0 0 1 -1.51.341 4.5 4.5 0 0 1 -1.412-.146 1.45 1.45 0 0 1 .73-1.412 2.175 2.175 0 0 1 1.7-.438 2.133 2.133 0 0 1 1.558-.73c.536 0 .925.195 1.023.633" fill="#158bc2" transform="translate(-73.961 -18.942)"/><path d="m144.509 33.117a9.054 9.054 0 0 0 1.753-.73 3.727 3.727 0 0 1 1.023-.487s-.049-.243 0 .049c.1.292-.195 1.217-.487 1.315s-.292.049-.438 0a1.231 1.231 0 0 1 -.682.925.934.934 0 0 1 -.974-.243 1.14 1.14 0 0 1 -.73.828 1.091 1.091 0 0 1 -1.169-.341c-.146.146-.1.243-.487.341-.39.146-1.266-.536-1.363-.925-.1-.341 0-.049 0-.049a10.47 10.47 0 0 1 1.51-.195c.584-.146 1.266-.243 2.045-.487" fill="#fff" transform="translate(-72.293 -16.277)"/><g fill="#003c6a"><path d="m129.979 30.227a3 3 0 0 0 -3.068-2.532 2.726 2.726 0 0 0 -2.922 2.532c-.146 1.656 1.412 1.412 1.51.292a1.78 1.78 0 0 1 1.7-1.363 1.923 1.923 0 0 1 1.85 1.412c.195.487.974.341.925-.341" transform="translate(-63.607 -14.166)"/><path d="m152.6 22.9a3.442 3.442 0 0 1 .39-3.75 2.179 2.179 0 0 1 3.214.195c.925 1.266-.1 1.948-.779 1.12a1.2 1.2 0 0 0 -1.753-.1 2.205 2.205 0 0 0 -.39 2.191c.195.536-.341.925-.682.341" transform="translate(-78.091 -9.464)"/><path d="m344.215 42.272a2.5 2.5 0 0 1 -2.581 2.581 2.423 2.423 0 0 1 -1.8-.73 2.534 2.534 0 0 1 -.73-1.85v-26.492a2.5 2.5 0 0 1 2.581-2.581 2.423 2.423 0 0 1 1.8.73 2.533 2.533 0 0 1 .73 1.85zm20.939-8.814a7.89 7.89 0 0 0 -.877-3.75 6.211 6.211 0 0 0 -2.337-2.532 6.3 6.3 0 0 0 -3.263-.877 6.178 6.178 0 0 0 -3.263.877 6.533 6.533 0 0 0 -2.337 2.532 8.458 8.458 0 0 0 0 7.5 6.533 6.533 0 0 0 2.337 2.532 6.3 6.3 0 0 0 3.263.877 6.178 6.178 0 0 0 3.263-.877 6.533 6.533 0 0 0 2.337-2.532 7.89 7.89 0 0 0 .878-3.75zm5.113 0a12.223 12.223 0 0 1 -1.558 6.136 11.066 11.066 0 0 1 -4.237 4.237 11.67 11.67 0 0 1 -5.892 1.51 11.419 11.419 0 0 1 -5.892-1.51 10.945 10.945 0 0 1 -4.188-4.237 12.859 12.859 0 0 1 0-12.271 11.284 11.284 0 0 1 4.188-4.237 11.543 11.543 0 0 1 5.892-1.51 11.67 11.67 0 0 1 5.892 1.51 11.066 11.066 0 0 1 4.237 4.237 11.743 11.743 0 0 1 1.559 6.135zm19.965 0a7.89 7.89 0 0 0 -.877-3.75 6.211 6.211 0 0 0 -2.337-2.532 6.3 6.3 0 0 0 -3.263-.877 6.178 6.178 0 0 0 -3.263.877 6.533 6.533 0 0 0 -2.337 2.532 8.459 8.459 0 0 0 0 7.5 6.533 6.533 0 0 0 2.337 2.532 6.3 6.3 0 0 0 3.263.877 6.178 6.178 0 0 0 3.263-.877 6.533 6.533 0 0 0 2.337-2.532 7.89 7.89 0 0 0 .878-3.75zm5.113 0a12.224 12.224 0 0 1 -1.558 6.136 11.066 11.066 0 0 1 -4.237 4.237 11.67 11.67 0 0 1 -5.892 1.51 11.419 11.419 0 0 1 -5.892-1.51 10.945 10.945 0 0 1 -4.188-4.237 12.859 12.859 0 0 1 0-12.271 11.284 11.284 0 0 1 4.188-4.237 11.544 11.544 0 0 1 5.892-1.51 11.67 11.67 0 0 1 5.892 1.51 11.066 11.066 0 0 1 4.237 4.237 11.744 11.744 0 0 1 1.559 6.135zm27.172-3.7a1.176 1.176 0 0 1 1.266 1.266v10.322a1.321 1.321 0 0 1 -.633 1.169 15.826 15.826 0 0 1 -4.285 2.045 16.069 16.069 0 0 1 -4.821.73 15.825 15.825 0 0 1 -7.889-2 14.817 14.817 0 0 1 -5.551-5.551 15.333 15.333 0 0 1 -2-7.889 15.825 15.825 0 0 1 2-7.889 14.817 14.817 0 0 1 5.551-5.551 15.333 15.333 0 0 1 7.889-2 18.622 18.622 0 0 1 4.383.536 13.326 13.326 0 0 1 3.8 1.607 1.222 1.222 0 0 1 .584 1.071 1.429 1.429 0 0 1 -.341.925 1.2 1.2 0 0 1 -.828.39 1.429 1.429 0 0 1 -.779-.195 14.074 14.074 0 0 0 -6.817-1.744 12.629 12.629 0 0 0 -6.525 1.656 11.5 11.5 0 0 0 -4.529 4.626 13.412 13.412 0 0 0 -1.607 6.574 13.412 13.412 0 0 0 1.607 6.574 11.815 11.815 0 0 0 4.529 4.626 12.753 12.753 0 0 0 6.525 1.656 13.879 13.879 0 0 0 3.7-.536 13.572 13.572 0 0 0 3.311-1.412v-8.426h-6.769a1.212 1.212 0 0 1 -.925-.341 1.293 1.293 0 0 1 0-1.85 1.286 1.286 0 0 1 .925-.341h8.23zm15.195 13.142a7 7 0 0 0 3.993-1.169 7.971 7.971 0 0 0 2.776-3.263 10.315 10.315 0 0 0 1.019-4.668 9.984 9.984 0 0 0 -1.023-4.529 8.147 8.147 0 0 0 -2.776-3.214 7.108 7.108 0 0 0 -3.993-1.169 7 7 0 0 0 -3.993 1.169 8.147 8.147 0 0 0 -2.776 3.214 10.107 10.107 0 0 0 -1.023 4.626 11.309 11.309 0 0 0 .974 4.675 7.579 7.579 0 0 0 2.776 3.263 7.943 7.943 0 0 0 4.046 1.065zm8.911-19.917a1.247 1.247 0 0 1 .925.39 1.285 1.285 0 0 1 .341.925v19.288a1.429 1.429 0 0 1 -.341.925 1.267 1.267 0 0 1 -2.191-.925v-2.873a9.343 9.343 0 0 1 -3.214 3.263 8.69 8.69 0 0 1 -4.675 1.315 9.041 9.041 0 0 1 -5.162-1.51 10.666 10.666 0 0 1 -3.6-4.139 12.943 12.943 0 0 1 -1.315-5.892 12.6 12.6 0 0 1 1.315-5.844 10.044 10.044 0 0 1 3.6-4.042 9.181 9.181 0 0 1 5.064-1.461 9.4 9.4 0 0 1 4.724 1.266 8.274 8.274 0 0 1 3.214 3.263v-2.632a1.212 1.212 0 0 1 .341-.925 1.547 1.547 0 0 1 .974-.387zm10.811 2.484v14.37a3.11 3.11 0 0 0 .584 2.191 2.172 2.172 0 0 0 1.607.584 3.351 3.351 0 0 0 .633-.1 3.6 3.6 0 0 1 .584-.1.85.85 0 0 1 .682.341 1.074 1.074 0 0 1 .292.73 1.271 1.271 0 0 1 -.682 1.023 2.919 2.919 0 0 1 -1.607.39 8.579 8.579 0 0 1 -2.045-.195 3.63 3.63 0 0 1 -1.753-1.266 5.749 5.749 0 0 1 -.828-3.409v-14.555h-3.117a1.218 1.218 0 1 1 0-2.435h3.116v-4.772a1.091 1.091 0 0 1 .39-.925 1.268 1.268 0 0 1 2.191.925v4.772h4.285a1.2 1.2 0 0 1 .828.39 1.174 1.174 0 0 1 .341.877 1 1 0 0 1 -.341.828 1.4 1.4 0 0 1 -.877.341zm17.092-.487a7.346 7.346 0 0 0 -4.626 1.7 7.824 7.824 0 0 0 -2.727 4.918h14.609v-.341a7.223 7.223 0 0 0 -1.266-3.36 6.845 6.845 0 0 0 -2.678-2.191 7.813 7.813 0 0 0 -3.312-.722zm9.934 7.694a1.219 1.219 0 0 1 -.39.877 1.174 1.174 0 0 1 -.877.341h-16.215a9.674 9.674 0 0 0 1.071 4.626 7.685 7.685 0 0 0 3.019 3.214 8.824 8.824 0 0 0 4.626 1.169 7.832 7.832 0 0 0 3.7-.877 8.326 8.326 0 0 0 2.63-2.191 1.533 1.533 0 0 1 .877-.39 1.167 1.167 0 0 1 1.12 1.12 1.179 1.179 0 0 1 -.438.877 10.128 10.128 0 0 1 -3.457 2.727 9.256 9.256 0 0 1 -4.383 1.071 12.062 12.062 0 0 1 -5.843-1.408 9.917 9.917 0 0 1 -3.944-3.944 11.316 11.316 0 0 1 -1.461-5.844 12.966 12.966 0 0 1 1.412-6.136 9.945 9.945 0 0 1 3.7-4.042 9.431 9.431 0 0 1 4.918-1.412 9.851 9.851 0 0 1 4.821 1.217 9.017 9.017 0 0 1 3.654 3.507 10.206 10.206 0 0 1 1.46 5.502zm29.851-10.174a1.176 1.176 0 0 1 1.266 1.266 4.981 4.981 0 0 1 -.146.536l-6.623 19.722a2.307 2.307 0 0 1 -.536.633 1.045 1.045 0 0 1 -.73.195 1.118 1.118 0 0 1 -.682-.195 1.947 1.947 0 0 1 -.487-.584l-5.6-13.2-5.016 13.2a1.432 1.432 0 0 1 -.487.584 1.164 1.164 0 0 1 -.682.243 1.108 1.108 0 0 1 -.779-.195 1.076 1.076 0 0 1 -.487-.633l-6.769-19.722a1.11 1.11 0 0 1 -.146-.536 1.247 1.247 0 0 1 .39-.925 1.285 1.285 0 0 1 .925-.341 1.449 1.449 0 0 1 .73.243 1.237 1.237 0 0 1 .438.633l5.7 17.092 5.11-12.805a1.176 1.176 0 0 1 1.217-.828 1.257 1.257 0 0 1 1.217.828l5.357 12.71 5.6-16.995a1.157 1.157 0 0 1 1.22-.926zm13.781 20.4a7 7 0 0 0 3.993-1.169 7.97 7.97 0 0 0 2.776-3.263 10.315 10.315 0 0 0 1.023-4.675 9.984 9.984 0 0 0 -1.023-4.529 8.146 8.146 0 0 0 -2.776-3.214 7.108 7.108 0 0 0 -3.993-1.169 7 7 0 0 0 -3.993 1.169 8.147 8.147 0 0 0 -2.776 3.214 10.107 10.107 0 0 0 -1.023 4.636 11.309 11.309 0 0 0 .974 4.675 7.578 7.578 0 0 0 2.776 3.263 7.943 7.943 0 0 0 4.042 1.062zm8.908-19.912a1.247 1.247 0 0 1 .925.39 1.286 1.286 0 0 1 .341.925v19.283a1.429 1.429 0 0 1 -.341.925 1.268 1.268 0 0 1 -2.191-.925v-2.873a9.343 9.343 0 0 1 -3.214 3.263 8.69 8.69 0 0 1 -4.675 1.315 9.041 9.041 0 0 1 -5.162-1.51 10.665 10.665 0 0 1 -3.6-4.139 12.943 12.943 0 0 1 -1.315-5.892 12.6 12.6 0 0 1 1.315-5.844 10.043 10.043 0 0 1 3.6-4.042 9.181 9.181 0 0 1 5.064-1.461 9.4 9.4 0 0 1 4.724 1.266 8.274 8.274 0 0 1 3.214 3.263v-2.632a1.212 1.212 0 0 1 .341-.925 1.448 1.448 0 0 1 .974-.387zm22.3-.39a1.212 1.212 0 0 1 .925.341 1.247 1.247 0 0 1 .389.925v18.943a11.985 11.985 0 0 1 -1.315 5.795 8.641 8.641 0 0 1 -3.7 3.652 11.243 11.243 0 0 1 -5.299 1.266 14.461 14.461 0 0 1 -3.36-.39 8.4 8.4 0 0 1 -2.581-1.023c-.584-.39-.877-.779-.877-1.266 0-.049.049-.195.1-.438a1.237 1.237 0 0 1 .438-.633.979.979 0 0 1 .633-.195 1.11 1.11 0 0 1 .536.146 10.7 10.7 0 0 0 5.211 1.51 7.3 7.3 0 0 0 5.649-2.24 8.706 8.706 0 0 0 2.094-6.087v-1.558a7.941 7.941 0 0 1 -3.068 2.873 9.119 9.119 0 0 1 -4.383 1.071 6.963 6.963 0 0 1 -5.649-2.24 9.08 9.08 0 0 1 -1.948-6.038v-13.148a1.267 1.267 0 1 1 2.532 0v12.759a6.957 6.957 0 0 0 1.364 4.675 5.165 5.165 0 0 0 4.237 1.607 6.922 6.922 0 0 0 3.36-.877 7.04 7.04 0 0 0 2.581-2.337 5.573 5.573 0 0 0 .974-3.068v-12.71a1.212 1.212 0 0 1 .341-.925.974.974 0 0 1 .822-.388zm-226.431 6.087a2.5 2.5 0 0 1 2.581 2.581v9.106a2.632 2.632 0 0 1 -1.315 2.337 17.127 17.127 0 0 1 -9.2 2.63 15.134 15.134 0 0 1 -7.84-2.094 15.7 15.7 0 0 1 -5.7-5.6 14.667 14.667 0 0 1 -2.095-7.745 14.789 14.789 0 0 1 2.094-7.743 15.785 15.785 0 0 1 13.538-7.694 15.189 15.189 0 0 1 7.353 1.7 2.856 2.856 0 0 1 .974.877 2.693 2.693 0 0 1 .341 1.217 2.614 2.614 0 0 1 -.73 1.85 2.264 2.264 0 0 1 -1.753.779 3.31 3.31 0 0 1 -1.412-.341 11.856 11.856 0 0 0 -4.821-.974 9.684 9.684 0 0 0 -5.064 1.412 9.994 9.994 0 0 0 -3.652 3.75 10.476 10.476 0 0 0 -1.368 5.167 10.11 10.11 0 0 0 1.363 5.162 10.37 10.37 0 0 0 3.652 3.75 9.684 9.684 0 0 0 5.064 1.412 16.571 16.571 0 0 0 2.581-.195 19.69 19.69 0 0 0 2.386-.536v-5.646h-4.042a2.581 2.581 0 1 1 0-5.162z" transform="translate(-158.683 -6.732)"/></g></g></svg>