<svg height="57.379" viewBox="0 0 420.102 57.379" width="420.102" xmlns="http://www.w3.org/2000/svg"><g fill-rule="evenodd"><path d="m307.853 47.018a2.79 2.79 0 0 1 .8 2.038v10.028a2.84 2.84 0 0 1 -1.448 2.574 18.909 18.909 0 0 1 -10.189 2.9 17 17 0 0 1 -8.687-2.306 17.177 17.177 0 0 1 -6.328-6.221 17.116 17.116 0 0 1 0-17.16 17.177 17.177 0 0 1 6.328-6.221 16.856 16.856 0 0 1 8.687-2.306 17.1 17.1 0 0 1 8.151 1.877 2.807 2.807 0 0 1 1.073 1.019 2.965 2.965 0 0 1 .375 1.341 2.79 2.79 0 0 1 -.8 2.038 2.493 2.493 0 0 1 -1.931.858 3.476 3.476 0 0 1 -1.555-.375 13.056 13.056 0 0 0 -5.309-1.073 10.664 10.664 0 0 0 -5.577 1.555 11.565 11.565 0 0 0 -4.076 4.129 11.51 11.51 0 0 0 0 11.369 11.565 11.565 0 0 0 4.076 4.129 10.8 10.8 0 0 0 5.577 1.555 17.785 17.785 0 0 0 2.842-.215 16.408 16.408 0 0 0 2.681-.644v-6.06h-4.451a2.843 2.843 0 1 1 0-5.684h7.776a2.806 2.806 0 0 1 1.985.855zm7.669-18.018a2.752 2.752 0 0 0 -2.842 2.842v29.279a2.79 2.79 0 0 0 .8 2.038 2.668 2.668 0 0 0 1.984.8 2.752 2.752 0 0 0 2.842-2.842v-29.217a2.79 2.79 0 0 0 -.8-2.038 2.714 2.714 0 0 0 -1.984-.862zm29.923 15.659a13.664 13.664 0 0 1 1.716 6.81 13.811 13.811 0 0 1 -1.716 6.81 12.186 12.186 0 0 1 -4.665 4.665 13.7 13.7 0 0 1 -13.085 0 12.564 12.564 0 0 1 -4.665-4.665 13.664 13.664 0 0 1 -1.716-6.81 13.811 13.811 0 0 1 1.716-6.81 12.324 12.324 0 0 1 4.665-4.719 12.909 12.909 0 0 1 6.542-1.662 13.05 13.05 0 0 1 6.542 1.662 12.712 12.712 0 0 1 4.665 4.719zm-4.022 6.757a8.539 8.539 0 0 0 -.965-4.129 7.023 7.023 0 0 0 -6.274-3.861 6.69 6.69 0 0 0 -3.646 1.019 7.109 7.109 0 0 0 -2.628 2.842 9.314 9.314 0 0 0 0 8.258 6.94 6.94 0 0 0 2.628 2.789 7.034 7.034 0 0 0 3.646 1.019 6.69 6.69 0 0 0 3.647-1.019 7.321 7.321 0 0 0 2.628-2.789 8.538 8.538 0 0 0 .964-4.13zm31.746-6.757a13.664 13.664 0 0 1 1.716 6.81 13.811 13.811 0 0 1 -1.716 6.81 12.186 12.186 0 0 1 -4.665 4.665 13.7 13.7 0 0 1 -13.085 0 12.565 12.565 0 0 1 -4.665-4.665 13.664 13.664 0 0 1 -1.716-6.81 13.811 13.811 0 0 1 1.716-6.81 12.325 12.325 0 0 1 4.665-4.719 12.909 12.909 0 0 1 6.542-1.662 13.05 13.05 0 0 1 6.539 1.662 11.967 11.967 0 0 1 4.669 4.719zm-3.969 6.756a8.538 8.538 0 0 0 -.965-4.129 7.023 7.023 0 0 0 -6.274-3.861 6.69 6.69 0 0 0 -3.646 1.019 7.11 7.11 0 0 0 -2.628 2.842 9.315 9.315 0 0 0 0 8.258 6.94 6.94 0 0 0 2.628 2.789 7.034 7.034 0 0 0 3.646 1.019 6.69 6.69 0 0 0 3.647-1.019 7.321 7.321 0 0 0 2.628-2.789 8.538 8.538 0 0 0 .964-4.129zm28.8-19.305a9.24 9.24 0 0 0 -4.719-1.233h-11.264a1.465 1.465 0 0 0 -1.448 1.448v30.352a1.2 1.2 0 0 0 .431 1.023 1.373 1.373 0 0 0 1.019.429 1.2 1.2 0 0 0 1.019-.429 1.373 1.373 0 0 0 .429-1.019v-12.6h9.813a8.91 8.91 0 0 0 4.72-1.293 9.291 9.291 0 0 0 3.271-3.486 10.8 10.8 0 0 0 1.18-4.934 9.813 9.813 0 0 0 -1.18-4.88 8.621 8.621 0 0 0 -3.271-3.378zm-.217 13.19a5.53 5.53 0 0 1 -4.451 1.984h-9.813v-13.565h9.813a5.936 5.936 0 0 1 4.451 1.823 6.851 6.851 0 0 1 1.716 4.773 7.586 7.586 0 0 1 -1.716 4.985zm11.476-15.873a1.373 1.373 0 0 1 .429 1.019v32.231a1.465 1.465 0 0 1 -1.448 1.448 1.2 1.2 0 0 1 -1.019-.429 1.373 1.373 0 0 1 -.429-1.019v-32.229a1.2 1.2 0 0 1 .429-1.019 1.425 1.425 0 0 1 2.038 0zm26.169 10.457a1.373 1.373 0 0 0 -1.019.429 1.465 1.465 0 0 0 -.429 1.019v2.949a9.112 9.112 0 0 0 -3.539-3.593 10.209 10.209 0 0 0 -5.2-1.394 10.419 10.419 0 0 0 -5.631 1.609 11.336 11.336 0 0 0 -4.022 4.5 15.263 15.263 0 0 0 0 12.977 11.745 11.745 0 0 0 3.968 4.558 10.128 10.128 0 0 0 5.738 1.662 9.57 9.57 0 0 0 5.148-1.448 9.849 9.849 0 0 0 3.539-3.593v3.171a1.2 1.2 0 0 0 .429 1.019 1.373 1.373 0 0 0 1.019.429 1.2 1.2 0 0 0 1.019-.429 1.373 1.373 0 0 0 .429-1.019v-21.4a1.373 1.373 0 0 0 -.429-1.019 1.2 1.2 0 0 0 -1.021-.425zm-2.306 17.106a8.777 8.777 0 0 1 -3.057 3.593 7.878 7.878 0 0 1 -4.451 1.287 8.18 8.18 0 0 1 -4.5-1.287 9.136 9.136 0 0 1 -3.057-3.593 11.657 11.657 0 0 1 -1.073-5.148 11.289 11.289 0 0 1 1.126-5.094 8.971 8.971 0 0 1 3.057-3.539 7.878 7.878 0 0 1 4.451-1.287 8 8 0 0 1 4.451 1.287 8.4 8.4 0 0 1 3.057 3.593 11.222 11.222 0 0 1 1.126 5.041 12.964 12.964 0 0 1 -1.131 5.149zm19.948-16.621a1.343 1.343 0 0 1 .429.965 1.1 1.1 0 0 1 -.375.912 1.542 1.542 0 0 1 -.965.375h-4.719v15.873a3.585 3.585 0 0 0 .644 2.467 2.391 2.391 0 0 0 1.77.643 3.69 3.69 0 0 0 .7-.107 3.961 3.961 0 0 1 .643-.107.936.936 0 0 1 .751.375 1.182 1.182 0 0 1 .322.8 1.4 1.4 0 0 1 -.751 1.126 3.287 3.287 0 0 1 -1.823.429 9.447 9.447 0 0 1 -2.252-.215 3.815 3.815 0 0 1 -1.93-1.448 6.4 6.4 0 0 1 -.912-3.807v-16.029h-3.486a1.292 1.292 0 0 1 -.965-.375 1.343 1.343 0 0 1 -.429-.965 1.165 1.165 0 0 1 .429-.965 1.292 1.292 0 0 1 .965-.375h3.484v-5.257a1.2 1.2 0 0 1 .429-1.019 1.448 1.448 0 0 1 2.467 1.019v5.256h4.719a1.626 1.626 0 0 1 .855.429zm16.248-9.438a1.292 1.292 0 0 1 -.375.965 1.142 1.142 0 0 1 -.858.375 2.67 2.67 0 0 1 -1.019-.215 5.524 5.524 0 0 0 -1.662-.268 2.867 2.867 0 0 0 -2.36 1.019 4.159 4.159 0 0 0 -.8 2.735v4.88h5.309a1.256 1.256 0 0 1 .912.375 1.3 1.3 0 0 1 0 1.931 1.256 1.256 0 0 1 -.912.375h-5.313v19.68a1.465 1.465 0 0 1 -1.448 1.448 1.2 1.2 0 0 1 -1.019-.429 1.373 1.373 0 0 1 -.429-1.019v-19.783h-3.486a1.164 1.164 0 0 1 -.965-.429 1.256 1.256 0 0 1 -.375-.912 1.147 1.147 0 0 1 .375-.965 1.542 1.542 0 0 1 .965-.375h3.486v-4.88a6.108 6.108 0 0 1 1.716-4.612 6.561 6.561 0 0 1 4.612-1.662 7.446 7.446 0 0 1 2.467.429c.804.264 1.179.747 1.179 1.337zm18.125 10.028a12.072 12.072 0 0 0 -12.227 0 11.7 11.7 0 0 0 -4.29 4.558 14.091 14.091 0 0 0 0 12.87 11.2 11.2 0 0 0 4.29 4.5 11.872 11.872 0 0 0 6.113 1.662 11.379 11.379 0 0 0 6.113-1.662 11.2 11.2 0 0 0 4.29-4.5 14.091 14.091 0 0 0 0-12.87 11.7 11.7 0 0 0 -4.288-4.559zm1.824 16.141a9.062 9.062 0 0 1 -3.267 3.539 9.1 9.1 0 0 1 -9.331 0 8.858 8.858 0 0 1 -3.271-3.593 11.138 11.138 0 0 1 0-10.189 9.214 9.214 0 0 1 3.271-3.593 9.1 9.1 0 0 1 9.331 0 8.5 8.5 0 0 1 3.271 3.593 10.653 10.653 0 0 1 1.18 5.094 10.272 10.272 0 0 1 -1.184 5.149zm22.04-16.3a1.461 1.461 0 0 1 -.375 1.073 1.228 1.228 0 0 1 -.912.429 2.916 2.916 0 0 1 -.912-.215 4.026 4.026 0 0 0 -1.287-.215 5.6 5.6 0 0 0 -3.486 1.341 10.162 10.162 0 0 0 -2.842 3.486 9.157 9.157 0 0 0 -1.126 4.29v11.69a1.465 1.465 0 0 1 -1.448 1.448 1.2 1.2 0 0 1 -1.019-.427 1.373 1.373 0 0 1 -.429-1.019v-21.24a1.2 1.2 0 0 1 .429-1.019 1.448 1.448 0 0 1 2.467 1.019v4.183a11.513 11.513 0 0 1 3.271-4.5 8.4 8.4 0 0 1 5.2-1.823 3.663 3.663 0 0 1 1.716.375 1.268 1.268 0 0 1 .753 1.124zm38.557 8.473v13.404a1.465 1.465 0 0 1 -1.448 1.448 1.2 1.2 0 0 1 -1.016-.425 1.373 1.373 0 0 1 -.429-1.019v-13.3a8 8 0 0 0 -1.5-5.094 5.509 5.509 0 0 0 -4.612-1.984 7.674 7.674 0 0 0 -3.754.965 7.754 7.754 0 0 0 -2.842 2.574 5.986 5.986 0 0 0 -1.073 3.539v13.3a1.465 1.465 0 0 1 -1.448 1.448 1.2 1.2 0 0 1 -1.019-.429 1.373 1.373 0 0 1 -.429-1.019v-13.411a8.092 8.092 0 0 0 -1.448-4.987 5.159 5.159 0 0 0 -4.451-1.931 7.623 7.623 0 0 0 -3.7.965 7.931 7.931 0 0 0 -2.789 2.52 6.175 6.175 0 0 0 -1.073 3.432v13.408a1.465 1.465 0 0 1 -1.448 1.448 1.2 1.2 0 0 1 -1.019-.429 1.373 1.373 0 0 1 -.429-1.019v-21.236a1.2 1.2 0 0 1 .429-1.019 1.448 1.448 0 0 1 2.467 1.019v2.735a10.112 10.112 0 0 1 3.486-3.218 8.949 8.949 0 0 1 4.612-1.287 8.017 8.017 0 0 1 4.719 1.341 7.492 7.492 0 0 1 2.842 3.861 8.5 8.5 0 0 1 3.646-3.647 10.636 10.636 0 0 1 5.363-1.555c2.842 0 4.933.858 6.274 2.628a10.6 10.6 0 0 1 2.088 6.971z" fill="#003c6a" transform="translate(-129.762 -13.449)"/><path d="m79.274 99.4c38.556 0 69.874.912 69.874 2.038s-31.263 2.038-69.874 2.038c-38.556 0-69.874-.912-69.874-2.038s31.317-2.038 69.874-2.038" fill="#003c6a" opacity=".3" transform="translate(-4.411 -46.097)"/><path d="m220.372 57.8h-23.972a1.535 1.535 0 0 0 -1.5 1.5v21.344a1.535 1.535 0 0 0 1.5 1.5h23.97a1.535 1.535 0 0 0 1.5-1.5v-21.344a1.535 1.535 0 0 0 -1.5-1.5" fill="#1756bc" transform="translate(-90.436 -26.805)"/><path d="m165.069 57.8h-24.669a1.535 1.535 0 0 0 -1.5 1.5v21.344a1.535 1.535 0 0 0 1.5 1.5h24.668a1.535 1.535 0 0 0 1.5-1.5v-21.344a1.5 1.5 0 0 0 -1.5-1.5" fill="#fbc65f" transform="translate(-64.466 -26.805)"/><path d="m110.808 57.8h-24.508a1.535 1.535 0 0 0 -1.5 1.5v21.344a1.535 1.535 0 0 0 1.5 1.5h24.507a1.535 1.535 0 0 0 1.5-1.5v-21.344a1.535 1.535 0 0 0 -1.5-1.5" fill="#bc4797" transform="translate(-39.377 -26.805)"/><path d="m189.818 12.4h-23.918a1.535 1.535 0 0 0 -1.5 1.5v21.344a1.535 1.535 0 0 0 1.5 1.5h23.917a1.535 1.535 0 0 0 1.5-1.5v-21.344a1.535 1.535 0 0 0 -1.5-1.5" fill="#bf0a17" transform="translate(-76.292 -5.75)"/><path d="m116.195 57.8h-18.5a1.42 1.42 0 0 0 -1.395 1.394v21.506a1.42 1.42 0 0 0 1.394 1.394h18.5a1.42 1.42 0 0 0 1.394-1.394v-21.5a1.352 1.352 0 0 0 -1.394-1.394" fill="#e251b5" transform="translate(-44.71 -26.805)"/><path d="m147.641 57.8h-7.722a1.079 1.079 0 0 0 -1.019 1.126v22.094a1.08 1.08 0 0 0 1.019 1.126h7.722a1.079 1.079 0 0 0 1.019-1.126v-22.094a1.046 1.046 0 0 0 -1.019-1.126" fill="#ffb830" transform="translate(-64.466 -26.805)"/><path d="m193.995 12.4h-18.072a1.808 1.808 0 0 0 -1.823 1.823v20.753a1.808 1.808 0 0 0 1.823 1.823h18.072a1.808 1.808 0 0 0 1.823-1.823v-20.753a1.808 1.808 0 0 0 -1.823-1.823" fill="#e005a3" transform="translate(-80.79 -5.75)"/><path d="m136.407 12.4h-23.007a1.535 1.535 0 0 0 -1.5 1.5v21.344a1.535 1.535 0 0 0 1.5 1.5h23.005a1.535 1.535 0 0 0 1.5-1.5v-21.344a1.535 1.535 0 0 0 -1.5-1.5" fill="#0dce93" transform="translate(-51.945 -5.75)"/><path d="m128.309 12.4h-15.336a1.076 1.076 0 0 0 -1.073 1.073v22.2a1.076 1.076 0 0 0 1.073 1.073h15.337a1.076 1.076 0 0 0 1.072-1.073v-22.2a1.076 1.076 0 0 0 -1.072-1.073" fill="#0fac7c" transform="translate(-51.945 -5.75)"/><path d="m226.547 57.8h-17.053a1.42 1.42 0 0 0 -1.394 1.394v21.558a1.42 1.42 0 0 0 1.394 1.394h17.053a1.42 1.42 0 0 0 1.394-1.394v-21.558a1.352 1.352 0 0 0 -1.394-1.394" fill="#316de6" transform="translate(-96.558 -26.805)"/><path d="m20.846 31.449a10.342 10.342 0 0 1 3.915 2.789l-1.77 1.394c-.483-.483-3.861-.322-3.378-.7 1.019-.8.375-1.448-.536-1.823-1.716-1.019-2.252 3.539-6.6 2.252a4.706 4.706 0 0 1 -3.322-6.161c.912-2.574 3.968-3.861 6.864-2.949a3.877 3.877 0 0 1 2.735 3.486c.107 1.5.268.965 2.091 1.716" fill="#158bc2" transform="translate(-4.166 -12.037)"/><path d="m78.1 57.7c-.912-1.287 3.593-5.952 6.221-9.438s4.719-2.949 5.845-1.984c1.126.912 1.233 3.7-1.287 6.274s-9.871 6.432-10.779 5.148" fill="#158bc2" transform="translate(-36.213 -21.124)"/><path d="m29.657 71.516c4.076 0 4.88-2.681 7.561-2.681s3.861 2.681 7.829 2.681c6.381 0 10.511-13.674 10.511-21.182 0-9.6-8.151-16.034-18.179-16.034s-18.179 6.435-18.179 16.034c0 11.369 4.826 21.182 10.457 21.182" fill="#158bc2" transform="translate(-8.955 -15.907)"/><path d="m88.159 52.761c-.322-.59 1.073-1.341 2.36-3 1.233-1.662 2.306-1.984 2.628-1.394s-.268 1.716-1.555 2.842c-1.341 1.073-3.164 2.145-3.432 1.555" fill="#fff" transform="translate(-40.914 -22.302)"/><path d="m18.831 27.5a1.98 1.98 0 0 1 1.984 1.984c0 1.984-3.915 2.091-3.915-.268a1.722 1.722 0 0 1 1.931-1.716" fill="#fff" transform="translate(-7.889 -12.753)"/><path d="m15.113 63.51c.483 1.5-5.094 4.719-8.526 7.347s-5.363 1.555-6.167.322-.215-3.861 2.949-5.684c3.11-1.716 11.208-3.486 11.744-1.984" fill="#158bc2" transform="translate(-.096 -29.19)"/><path d="m3.424 71.184a.839.839 0 0 1 -.107 1.126.606.606 0 0 1 -.965.054.839.839 0 0 1 .107-1.126.682.682 0 0 1 .965-.054m6.489-4.184c.483.483-1.5.107-4.451 2.628-1.073.912-1.448 1.448-1.931 1.126-.215-.161-.644-.7.8-1.931 1.506-1.179 5.045-2.305 5.582-1.823z" fill="#fff" transform="translate(-1.062 -31.019)"/><path d="m40.588 35.6a16.18 16.18 0 0 1 16.194 16.195c0 16.3-32.282 17.106-32.282-2.36 0-8.955 7.132-13.835 16.088-13.835" fill="#289bcd" transform="translate(-11.413 -16.509)"/><path d="m50.182 69.16c2.735-.161 3.7-1.18 4.934-.215s-.8 4.612-4.665 4.88c-3.915.215-6.274-3.11-5.255-4.29s2.2-.214 4.987-.375" fill="#003c6a" transform="translate(-20.901 -31.783)"/><path d="m55.309 75.109a4.943 4.943 0 0 1 -2.574.912 5.428 5.428 0 0 1 -2.735-.59c0-.858 1.448-1.394 2.628-.912 1.126-.644 2.628-.268 2.681.59" fill="#158bc2" transform="translate(-23.239 -34.408)"/><path d="m51.547 69.79c1.77-.107 2.735-.536 3.593-.59v.054a1.056 1.056 0 0 1 -.965 1.18 1.587 1.587 0 0 1 -.536-.107 1.217 1.217 0 0 1 -1.019.7 1.373 1.373 0 0 1 -1.019-.429 1.315 1.315 0 0 1 -.965.59 1.039 1.039 0 0 1 -1.073-.59 1.606 1.606 0 0 1 -.536.215 1.084 1.084 0 0 1 -1.127-1.077v-.054c.8-.107 1.823.214 3.647.107" fill="#fff" transform="translate(-22.265 -32.091)"/><path d="m65.521 46.539a.8.8 0 0 1 .858.644c.107.429-.054.8-.429.858a.8.8 0 0 1 -.858-.644.655.655 0 0 1 .429-.858m-14.321-4.988c-3.164.643-4.129-2.413-.161-3.378 5.041-1.233 12.119 2.038 14.264 6.542.59 1.18-.322 1.662-1.287.429-2.678-3.271-7.504-4.665-12.816-3.593z" fill="#eef7f8" transform="translate(-22.512 -17.581)"/><path d="m67.687 56.6a2.87 2.87 0 1 1 -2.787 2.948 2.872 2.872 0 0 1 2.787-2.948" fill="#003c6a" transform="translate(-30.147 -26.247)"/><path d="m71.9 58.3a.8.8 0 1 1 -.8.8.79.79 0 0 1 .8-.8" fill="#eef7f8" transform="translate(-33.024 -27.037)"/><path d="m35.387 57a2.87 2.87 0 1 1 -2.787 2.948 2.872 2.872 0 0 1 2.787-2.948" fill="#003c6a" transform="translate(-15.168 -26.432)"/><path d="m39.6 58.6a.8.8 0 1 1 -.8.8.862.862 0 0 1 .8-.8" fill="#eef7f8" transform="translate(-18.045 -27.176)"/><path d="m85.862 0h26.223a1.671 1.671 0 0 1 1.662 1.662v23.327a1.671 1.671 0 0 1 -1.662 1.662h-26.223a1.671 1.671 0 0 1 -1.662-1.662v-23.327a1.671 1.671 0 0 1 1.662-1.662" fill="#3f609d" transform="translate(-39.099)"/><path d="m99.214 0h18.93a1.785 1.785 0 0 1 1.77 1.77v23.058a1.785 1.785 0 0 1 -1.77 1.77h-18.877a1.785 1.785 0 0 1 -1.77-1.77v-23.058a1.706 1.706 0 0 1 1.717-1.77" fill="#466baf" transform="translate(-45.265)"/><g fill="#fff"><path d="m107.2 28.86 4.934-9.76v8.9z" transform="translate(-49.765 -8.857)"/><path d="m112.134 41.367-4.934-2.467h13.245z" transform="translate(-49.765 -18.039)"/><path d="m125.454 23.156-7.454-16.356v15.5z" transform="translate(-54.773 -3.153)"/><path d="m112.682 70.134 2.2 1.394 2.2 1.394a.563.563 0 0 1 .268.483v4.451a.583.583 0 0 1 -.375.536l-2.145.912-2.2.912a.635.635 0 0 1 -.536-.054l-2.2-1.394-2.2-1.394a.563.563 0 0 1 -.268-.483v-4.451a.583.583 0 0 1 .375-.536l2.145-.912 2.2-.912a.927.927 0 0 1 .536.054zm1.555 2.306-1.93-1.233-1.93.8-1.823.8v3.754l1.931 1.233 1.931 1.233 1.93-.8 1.823-.8v-3.753zm-5.094.59 1.5.965 1.716 1.072a.465.465 0 0 1 .214.375v3.11l-.107.054-.858-.536v-2.305l-1.5-.965-1.126-.751v-.965zm1.877 6.864-.429.215-1.716.751a.4.4 0 0 1 -.429-.054l-1.716-1.072-1.716-1.073a.465.465 0 0 1 -.215-.375v-3.486a.408.408 0 0 1 .322-.429l1.662-.7.322-.107v1.019l-1.341.59v2.9l1.5.965 1.5.965 1.341-.59zm-4.934-4.451.8.536.161.107v.914l-.59-.375-.375-.268v-.912zm2.306 2.842v.915l-.8-.483v-.917zm-1.126 2.252-.375.161-1.18.483a.33.33 0 0 1 -.375-.054l-1.287-.858-1.287-.858a.382.382 0 0 1 -.161-.322v-2.68a.4.4 0 0 1 .268-.375l1.126-.483.429-.161v.858l-.107.054-.912.375v2.2l1.019.8 1.126.7.858-.375z" transform="translate(-47.632 -32.49)"/></g><path d="m173.036 66 .7 1.233.751 1.233-.751 1.233-.7 1.233h-2.842l-.7-1.233-.7-1.233.7-1.233.7-1.233z" fill="#373737" transform="translate(-78.332 -30.607)"/><path d="m173.264 67.2.536.912.536.912-.536.912-.536.912h-2.091l-.536-.912-.536-.912.536-.912.536-.912z" fill="#f8c514" transform="translate(-78.935 -31.163)"/><path d="m161.594 71h2.842l.751 1.233.7 1.18-.7 1.233-.751 1.233h-2.842l-.7-1.233-.7-1.233.7-1.18z" fill="#373737" transform="translate(-74.344 -32.926)"/><path d="m162.619 72.1h2.145l.483.912.536.912-.536.912-.483.912h-2.145l-.483-.912-.536-.912.536-.912z" fill="#c9dd72" transform="translate(-74.993 -33.436)"/><path d="m160.2 83.313.7-1.233.7-1.18h2.842l.751 1.18.7 1.233-.7 1.233-.751 1.233h-2.842l-.7-1.233z" fill="#373737" transform="translate(-74.344 -37.517)"/><path d="m161.6 83.823.536-.912.483-.912h2.145l.483.912.536.912-.536.912-.483.912h-2.145l-.483-.912z" fill="#96c83f" transform="translate(-74.993 -38.027)"/><path d="m170.194 90.734-.7-1.233-.7-1.233.7-1.233.7-1.233h2.842l.7 1.233.751 1.233-.751 1.233-.7 1.233z" fill="#373737" transform="translate(-78.332 -39.789)"/><path d="m171.173 90.647-.536-.912-.536-.912.536-.912.536-.912h2.091l.536.912.536.912-.536.912-.536.912z" fill="#6388c5" transform="translate(-78.935 -40.346)"/><path d="m181.59 85.78h-2.842l-.7-1.233-.751-1.233.751-1.233.7-1.18h2.842l.7 1.18.7 1.233-.7 1.233z" fill="#373737" transform="translate(-82.274 -37.517)"/><path d="m181.864 85.646h-2.091l-.536-.912-.536-.912.536-.912.536-.912h2.091l.536.912.536.912-.536.912z" fill="#8062a8" transform="translate(-82.923 -38.027)"/><path d="m182.984 73.413-.7 1.233-.7 1.233h-2.842l-.7-1.233-.751-1.233.751-1.18.7-1.233h2.842l.7 1.233z" fill="#373737" transform="translate(-82.274 -32.926)"/><path d="m182.936 73.923-.536.912-.536.912h-2.091l-.536-.912-.536-.912.536-.912.536-.912h2.091l.536.912z" fill="#f17424" transform="translate(-82.923 -33.436)"/><path d="m173.036 75.9.7 1.233.751 1.233-.751 1.233-.7 1.233h-2.842l-.7-1.233-.7-1.233.7-1.233.7-1.233z" fill="#373737" transform="translate(-78.332 -35.198)"/><path d="m173.264 77.1.536.912.536.912-.536.912-.536.912h-2.091l-.536-.912-.536-.912.536-.912.536-.912z" fill="#e8232a" transform="translate(-78.935 -35.755)"/><path d="m187.294 33.645c.322-.107.429-.375 1.072-.375.59 0 .7.268 1.072.429a26.407 26.407 0 0 0 3.11-1.877h-8.366c.268.215 2.681 1.609 3.11 1.823m6.221-3.539v-3.646c-1.126-.483-.965-.858-1.019-1.77l-3.164-1.823a10.77 10.77 0 0 0 1.019 1.877c.322.59.643 1.126 1.072 1.823.216.375 1.933 3.433 2.093 3.539zm-9.331-5.416c.054 1.019-.268 1.448-1.019 1.716v3.647c.214-.107 2.9-4.934 3.164-5.363a15.545 15.545 0 0 0 1.019-1.823c-.267.107-2.841 1.609-3.162 1.823zm-.375 5.792a1.122 1.122 0 0 1 .214.322c.054.107.107.322.268.375h8.258a2.41 2.41 0 0 1 .322-.644c-.107-.375-3.861-6.757-4.129-7.186h-.858zm3.164-8.2-3.11 1.823c-.429-.161-.483-.483-1.233-.375a1.429 1.429 0 0 0 -1.073 1.984c.215.429.483.536.912.751v3.647c-1.019.429-1.341 1.233-.858 2.038a1.274 1.274 0 0 0 .965.643c.7.107.858-.214 1.287-.375l3.164 1.823a1.4 1.4 0 0 0 2.413 1.287 1.588 1.588 0 0 0 .268-1.341c.643-.268 2.735-1.662 3.164-1.77a1.387 1.387 0 1 0 1.341-2.306v-3.7a1.409 1.409 0 0 0 -.054-2.735c-.7-.107-.858.214-1.287.375l-3.164-1.823c0-.59.054-.858-.268-1.287a1.488 1.488 0 0 0 -1.073-.536 1.309 1.309 0 0 0 -1.072.536 2.27 2.27 0 0 0 -.321 1.336z" fill="#fff" transform="translate(-84.171 -9.46)"/><path d="m219.613 66.394a7.3 7.3 0 0 0 -1.341.59l-3.861 1.877c-.536.268-.8.322-.965.965l-1.072 4.719c-.322 1.341-.429 1.394.161 2.2l3 3.7a2.389 2.389 0 0 0 .965.965c.429.161 4.665.107 5.684.107 1.5 0 1.126.107 2.36-1.448l2.574-3.164a1.564 1.564 0 0 0 .536-1.341 13.193 13.193 0 0 0 -.375-1.555c-.268-1.019-.483-2.091-.7-3.11-.375-1.662-.215-1.5-1.662-2.2l-3.861-1.877a2.7 2.7 0 0 0 -1.448-.429zm-.161 3.647a5.077 5.077 0 0 0 -1.609.429 5.154 5.154 0 0 0 -1.18.858 1.37 1.37 0 0 1 -.751-.483c-.107-.107-.536-.644-.8-.268s.214.59.429.751c.429.268.429.215.59.536.054.107 0-.054.054.107a4.643 4.643 0 0 0 -.536 1.287 6.168 6.168 0 0 0 -.107 1.716c-.054 0-.054.054-.107.054-.054.054-.054 0-.054.054-.054.054-.054.054-.215.107-.429.107-1.341 0-1.233.59.107.483.8.054 1.287-.054.268-.054.268.054.483 0a4.275 4.275 0 0 0 1.93 2.413c-.107.375.054.215-.054.483-.161.322-.429.644-.483.751-.161.429.429 1.019.751-.054.322-.912.322-.483.483-.8a6.711 6.711 0 0 0 1.555.268 4.982 4.982 0 0 0 1.555-.268l.161.161c.161.107.214.375.322.644s.214.8.643.59c.536-.322-.375-1.019-.375-1.448v-.268a3.9 3.9 0 0 0 1.555-1.662c.107-.215.215-.536.322-.751a1.124 1.124 0 0 1 .912.107 1.282 1.282 0 0 0 .483.161.316.316 0 0 0 .215-.59.721.721 0 0 0 -.483-.107c-.536-.054-.536-.054-.8-.215l-.107-.054a6.167 6.167 0 0 0 -.107-1.716 3.77 3.77 0 0 0 -.59-1.233c.054-.161.054-.054.107-.214.054-.215.214-.268.536-.429.214-.107.7-.322.483-.751s-.7.107-.965.375c-.107.107-.054.107-.161.161a.279.279 0 0 1 -.215.107c-.054 0-.054 0-.161.054-.054 0-.054.054-.107.054a4.193 4.193 0 0 0 -1.18-.858 4.8 4.8 0 0 0 -1.555-.483c-.054-.054-.054-.107-.107-.161-.214-.429.107-.912 0-1.287-.054-.107-.161-.268-.322-.215-.483 0-.322.59-.268.751a1.2 1.2 0 0 1 0 .751c-.161-.054-.161 0-.214.054zm2.306 7.293a3.144 3.144 0 0 0 1.341-1.716 7.593 7.593 0 0 1 -1.073-.215c-.268-.054-.858-.215-.965.054a7.135 7.135 0 0 0 .7 1.877zm-4.29-5.416.054.054c.054.054.054.054.107.054a.741.741 0 0 0 .214.161 2.27 2.27 0 0 0 .375.268c.107.054.7.536.751.536.429.107.375-.483.429-.8a9.916 9.916 0 0 0 .054-1.233 3.306 3.306 0 0 0 -1.984.965zm-.858 3.7a3.507 3.507 0 0 0 .912 1.394 2.239 2.239 0 0 0 .429.322c.161-.429.751-1.609.643-1.823-.107-.322-.7-.107-.965-.107a5.7 5.7 0 0 0 -1.019.215zm5.684-3.7a3.469 3.469 0 0 0 -1.984-.965c0 .375.054.8.054 1.18s-.054 1.019.429.858c.054-.054 1.394-1.019 1.5-1.073zm-5.9 2.842a7.144 7.144 0 0 0 1.019-.268c.483-.161.912-.161.858-.536 0-.161-.536-.536-.7-.7l-.375-.322a2.333 2.333 0 0 0 -.375-.322c-.107.322-.268.536-.375.912a9.494 9.494 0 0 0 -.054 1.233zm6.918 0a3.454 3.454 0 0 0 -.483-2.145 16.132 16.132 0 0 0 -1.394 1.341c-.107.375.375.375.8.536.322.054.751.215 1.073.268zm-4.558 3a3.429 3.429 0 0 0 2.2 0l-.751-1.341c-.429-.751-.643-.161-.965.429-.107.215-.375.644-.483.912zm.8-3.861s-.214.268-.268.322a.792.792 0 0 0 .054.483c.054.214.107.161.322.268s.215.107.429 0c.161-.107.268-.054.322-.268s.107-.322 0-.483c-.054-.054-.214-.268-.268-.322a1.1 1.1 0 0 0 -.59 0z" fill="#fff" transform="translate(-98.418 -30.787)"/></g></svg>